<svg width="34" height="6" viewBox="0 0 34 6" fill="none" xmlns="http://www.w3.org/2000/svg">
<path d="M1.15385 6L3 4.59231L4.84615 6L4.15384 3.71539L6 2.4H3.73846L3 0L2.26154 2.4H0L1.84616 3.71539L1.15385 6Z" fill="#FAC74A"/>
<path d="M8.15385 6L10 4.59231L11.8462 6L11.1538 3.71539L13 2.4H10.7385L10 0L9.26154 2.4H7L8.84616 3.71539L8.15385 6Z" fill="#FAC74A"/>
<path d="M15.1538 6L17 4.59231L18.8462 6L18.1538 3.71539L20 2.4H17.7385L17 0L16.2615 2.4H14L15.8462 3.71539L15.1538 6Z" fill="#FAC74A"/>
<path d="M22.1538 6L24 4.59231L25.8462 6L25.1538 3.71539L27 2.4H24.7385L24 0L23.2615 2.4H21L22.8462 3.71539L22.1538 6Z" fill="#FAC74A"/>
<path d="M29.1538 6L31 4.59231L32.8462 6L32.1538 3.71539L34 2.4H31.7385L31 0L30.2615 2.4H28L29.8462 3.71539L29.1538 6Z" fill="#FAC74A"/>
</svg>
